<svg width="18" height="18" viewBox="0 0 18 18" fill="none" xmlns="http://www.w3.org/2000/svg">
<circle cx="9" cy="9" r="9" fill="#00B856"/>
<path d="M8.776 6.608C8.416 6.608 8.12 6.504 7.888 6.296C7.664 6.08 7.552 5.816 7.552 5.504C7.552 5.184 7.664 4.92 7.888 4.712C8.12 4.496 8.416 4.388 8.776 4.388C9.128 4.388 9.416 4.496 9.64 4.712C9.872 4.92 9.988 5.184 9.988 5.504C9.988 5.816 9.872 6.08 9.64 6.296C9.416 6.504 9.128 6.608 8.776 6.608ZM9.796 7.304V14H7.744V7.304H9.796Z" fill="#111111"/>
</svg>
